<mxfile host="app.diagrams.net" modified="2024-04-13T20:53:32.864Z" agent="Mozilla/5.0 (Windows NT 10.0; Win64; x64) AppleWebKit/537.36 (KHTML, like Gecko) Chrome/123.0.0.0 Safari/537.36 Edg/123.0.0.0" etag="Tg2LbC-mnUWf_uvKB7Kr" version="24.2.5" type="github">
  <diagram name="Page-1" id="-M73Pf017ZOop66-vZGk">
    <mxGraphModel dx="703" dy="761" grid="1" gridSize="10" guides="1" tooltips="1" connect="1" arrows="1" fold="1" page="1" pageScale="1" pageWidth="850" pageHeight="1100" math="0" shadow="0">
      <root>
        <mxCell id="0" />
        <mxCell id="1" parent="0" />
        <mxCell id="-_NfbpRehJyuFpTi17YS-1" value="Event Management" style="swimlane;startSize=20;html=1;" vertex="1" parent="1">
          <mxGeometry x="400" y="100" width="190" height="300" as="geometry" />
        </mxCell>
        <mxCell id="-_NfbpRehJyuFpTi17YS-2" style="edgeStyle=orthogonalEdgeStyle;rounded=0;orthogonalLoop=1;jettySize=auto;html=1;" edge="1" parent="-_NfbpRehJyuFpTi17YS-1" source="-_NfbpRehJyuFpTi17YS-3" target="-_NfbpRehJyuFpTi17YS-4">
          <mxGeometry relative="1" as="geometry" />
        </mxCell>
        <mxCell id="-_NfbpRehJyuFpTi17YS-3" value="Displays Calendar" style="rounded=1;whiteSpace=wrap;html=1;arcSize=40;fontColor=#000000;fillColor=#FFFFFF;strokeColor=#0D0D0D;" vertex="1" parent="-_NfbpRehJyuFpTi17YS-1">
          <mxGeometry x="34.38" y="125" width="135.62" height="40" as="geometry" />
        </mxCell>
        <mxCell id="-_NfbpRehJyuFpTi17YS-4" value="" style="ellipse;html=1;shape=endState;fillColor=#000000;strokeColor=#0D0D0D;" vertex="1" parent="-_NfbpRehJyuFpTi17YS-1">
          <mxGeometry x="87.18999999999954" y="240" width="30" height="30" as="geometry" />
        </mxCell>
        <mxCell id="-_NfbpRehJyuFpTi17YS-5" value="User" style="swimlane;startSize=20;html=1;" vertex="1" parent="1">
          <mxGeometry x="210" y="100" width="190" height="300" as="geometry">
            <mxRectangle y="20" width="40" height="460" as="alternateBounds" />
          </mxGeometry>
        </mxCell>
        <mxCell id="-_NfbpRehJyuFpTi17YS-6" value="" style="ellipse;html=1;shape=startState;fillColor=#000000;strokeColor=#0D0D0D;" vertex="1" parent="-_NfbpRehJyuFpTi17YS-5">
          <mxGeometry x="87.49999999999977" y="40" width="30" height="30" as="geometry" />
        </mxCell>
        <mxCell id="-_NfbpRehJyuFpTi17YS-7" value="Clicks View Calendar" style="rounded=1;whiteSpace=wrap;html=1;arcSize=40;fontColor=#000000;fillColor=#FFFFFF;strokeColor=#0D0D0D;" vertex="1" parent="-_NfbpRehJyuFpTi17YS-5">
          <mxGeometry x="51.25" y="130" width="102.5" height="30" as="geometry" />
        </mxCell>
        <mxCell id="-_NfbpRehJyuFpTi17YS-8" style="edgeStyle=orthogonalEdgeStyle;rounded=0;orthogonalLoop=1;jettySize=auto;html=1;" edge="1" parent="-_NfbpRehJyuFpTi17YS-5" source="-_NfbpRehJyuFpTi17YS-6" target="-_NfbpRehJyuFpTi17YS-7">
          <mxGeometry relative="1" as="geometry" />
        </mxCell>
        <mxCell id="-_NfbpRehJyuFpTi17YS-9" style="edgeStyle=orthogonalEdgeStyle;rounded=0;orthogonalLoop=1;jettySize=auto;html=1;entryX=0;entryY=0.5;entryDx=0;entryDy=0;" edge="1" parent="1" source="-_NfbpRehJyuFpTi17YS-7" target="-_NfbpRehJyuFpTi17YS-3">
          <mxGeometry relative="1" as="geometry" />
        </mxCell>
      </root>
    </mxGraphModel>
  </diagram>
</mxfile>
